<svg aria-hidden="true" style="position: absolute; width: 0; height: 0; overflow: hidden;" version="1.1" xmlns="http://www.w3.org/2000/svg" xmlns:xlink="http://www.w3.org/1999/xlink">
<defs>
<symbol id="icon-facebook" viewBox="0 0 32 32">
<path fill="none" stroke="#fff" style="stroke: var(--color1, #fff)" stroke-linejoin="round" stroke-linecap="round" stroke-miterlimit="4" stroke-width="2.6667" d="M24 2.667h-4c-1.768 0-3.464 0.702-4.714 1.953s-1.953 2.946-1.953 4.714v4h-4v5.333h4v10.667h5.333v-10.667h4l1.333-5.333h-5.333v-4c0-0.354 0.141-0.693 0.391-0.943s0.589-0.391 0.943-0.391h4v-5.333z"></path>
</symbol>
<symbol id="icon-instagram" viewBox="0 0 32 32">
<path fill="none" stroke="#fff" style="stroke: var(--color1, #fff)" stroke-linejoin="round" stroke-linecap="round" stroke-miterlimit="4" stroke-width="2.6667" d="M22.667 2.667h-13.333c-3.682 0-6.667 2.985-6.667 6.667v13.333c0 3.682 2.985 6.667 6.667 6.667h13.333c3.682 0 6.667-2.985 6.667-6.667v-13.333c0-3.682-2.985-6.667-6.667-6.667z"></path>
<path fill="none" stroke="#fff" style="stroke: var(--color1, #fff)" stroke-linejoin="round" stroke-linecap="round" stroke-miterlimit="4" stroke-width="2.6667" d="M21.333 15.16c0.165 1.11-0.025 2.243-0.542 3.239s-1.334 1.803-2.336 2.307c-1.002 0.504-2.137 0.68-3.245 0.502s-2.131-0.701-2.924-1.494c-0.793-0.793-1.316-1.816-1.494-2.924s-0.003-2.243 0.502-3.245c0.504-1.002 1.312-1.819 2.308-2.336s2.129-0.706 3.239-0.542c1.132 0.168 2.18 0.695 2.989 1.504s1.337 1.857 1.504 2.989z"></path>
<path fill="none" stroke="#fff" style="stroke: var(--color1, #fff)" stroke-linejoin="round" stroke-linecap="round" stroke-miterlimit="4" stroke-width="2.6667" d="M23.333 8.667h0.013"></path>
</symbol>
<symbol id="icon-mimino" viewBox="0 0 182 32">
<path d="M39.126 0.609v0.87c-0.863 0.029-1.524 0.145-1.984 0.348-0.431 0.174-0.719 0.522-0.863 1.043-0.144 0.493-0.216 1.275-0.216 2.348v21.565c0 1.043 0.072 1.826 0.216 2.348 0.173 0.522 0.475 0.87 0.906 1.043s1.078 0.29 1.941 0.348v0.87c-0.892-0.058-2.028-0.087-3.408-0.087-1.38-0.029-2.79-0.043-4.228-0.043-1.553 0-3.020 0.014-4.4 0.043-1.352 0-2.444 0.029-3.278 0.087v-0.87c0.978-0.058 1.711-0.174 2.2-0.348 0.518-0.174 0.863-0.522 1.035-1.043s0.259-1.304 0.259-2.348v-23.261l0.431-0.087-10.828 27.913h-0.69l-12.165-27.913v19.435c0 1.942 0.072 3.435 0.216 4.478 0.173 1.014 0.561 1.754 1.165 2.217 0.633 0.435 1.625 0.754 2.977 0.957v0.87c-0.575-0.058-1.323-0.087-2.243-0.087-0.92-0.029-1.783-0.043-2.588-0.043-0.633 0-1.28 0.014-1.941 0.043-0.661 0-1.208 0.029-1.639 0.087v-0.87c0.892-0.203 1.553-0.507 1.984-0.913 0.431-0.435 0.719-1.116 0.863-2.043s0.216-2.203 0.216-3.826v-18.522c0-1.072-0.072-1.855-0.216-2.348-0.144-0.522-0.446-0.87-0.906-1.043-0.431-0.203-1.078-0.319-1.941-0.348v-0.87c0.431 0.029 0.978 0.058 1.639 0.087s1.309 0.043 1.941 0.043c1.668 0 3.264-0.014 4.788-0.043s2.905-0.058 4.141-0.087l8.541 19.391-1.294 1.435 7.981-20.696c0.575 0 1.193 0 1.855 0s1.294 0 1.898 0c1.438 0 2.847-0.014 4.228-0.043s2.516-0.058 3.408-0.087z"></path>
<path d="M56.418 0.609v0.87c-0.863 0.029-1.524 0.145-1.984 0.348-0.432 0.174-0.719 0.522-0.863 1.043-0.144 0.493-0.216 1.275-0.216 2.348v21.565c0 1.043 0.072 1.826 0.216 2.348 0.172 0.522 0.474 0.87 0.906 1.043s1.078 0.29 1.941 0.348v0.87c-0.834-0.058-1.912-0.087-3.236-0.087-1.294-0.029-2.617-0.043-3.968-0.043-1.553 0-3.020 0.014-4.4 0.043-1.352 0-2.444 0.029-3.278 0.087v-0.87c0.892-0.058 1.553-0.174 1.984-0.348s0.719-0.522 0.863-1.043c0.144-0.522 0.216-1.304 0.216-2.348v-21.565c0-1.072-0.072-1.855-0.216-2.348-0.144-0.522-0.446-0.87-0.906-1.043-0.431-0.203-1.078-0.319-1.941-0.348v-0.87c0.834 0.029 1.927 0.058 3.278 0.087 1.38 0.029 2.847 0.043 4.4 0.043 1.352 0 2.674-0.014 3.968-0.043 1.323-0.029 2.402-0.058 3.236-0.087z"></path>
<path d="M98.062 0.609v0.87c-0.863 0.029-1.524 0.145-1.984 0.348-0.431 0.174-0.719 0.522-0.863 1.043-0.144 0.493-0.216 1.275-0.216 2.348v21.565c0 1.043 0.072 1.826 0.216 2.348 0.173 0.522 0.475 0.87 0.906 1.043s1.078 0.29 1.941 0.348v0.87c-0.892-0.058-2.028-0.087-3.408-0.087-1.38-0.029-2.79-0.043-4.228-0.043-1.553 0-3.020 0.014-4.4 0.043-1.352 0-2.444 0.029-3.278 0.087v-0.87c0.978-0.058 1.711-0.174 2.2-0.348 0.518-0.174 0.863-0.522 1.035-1.043s0.259-1.304 0.259-2.348v-23.261l0.432-0.087-10.828 27.913h-0.69l-12.165-27.913v19.435c0 1.942 0.072 3.435 0.216 4.478 0.172 1.014 0.561 1.754 1.165 2.217 0.633 0.435 1.625 0.754 2.976 0.957v0.87c-0.575-0.058-1.323-0.087-2.243-0.087-0.92-0.029-1.783-0.043-2.588-0.043-0.633 0-1.28 0.014-1.941 0.043-0.662 0-1.208 0.029-1.64 0.087v-0.87c0.892-0.203 1.553-0.507 1.984-0.913 0.432-0.435 0.719-1.116 0.863-2.043s0.216-2.203 0.216-3.826v-18.522c0-1.072-0.072-1.855-0.216-2.348-0.144-0.522-0.446-0.87-0.906-1.043-0.431-0.203-1.078-0.319-1.941-0.348v-0.87c0.432 0.029 0.978 0.058 1.64 0.087s1.308 0.043 1.941 0.043c1.668 0 3.264-0.014 4.788-0.043s2.905-0.058 4.141-0.087l8.542 19.391-1.294 1.435 7.981-20.696c0.575 0 1.194 0 1.855 0s1.294 0 1.898 0c1.438 0 2.847-0.014 4.228-0.043s2.516-0.058 3.408-0.087z"></path>
<path d="M115.354 0.609v0.87c-0.863 0.029-1.524 0.145-1.984 0.348-0.431 0.174-0.719 0.522-0.863 1.043-0.144 0.493-0.216 1.275-0.216 2.348v21.565c0 1.043 0.072 1.826 0.216 2.348 0.173 0.522 0.475 0.87 0.906 1.043s1.078 0.29 1.941 0.348v0.87c-0.834-0.058-1.912-0.087-3.235-0.087-1.294-0.029-2.617-0.043-3.969-0.043-1.553 0-3.020 0.014-4.4 0.043-1.352 0-2.444 0.029-3.278 0.087v-0.87c0.891-0.058 1.553-0.174 1.984-0.348s0.719-0.522 0.863-1.043c0.144-0.522 0.216-1.304 0.216-2.348v-21.565c0-1.072-0.072-1.855-0.216-2.348-0.144-0.522-0.446-0.87-0.906-1.043-0.432-0.203-1.079-0.319-1.941-0.348v-0.87c0.834 0.029 1.927 0.058 3.278 0.087 1.38 0.029 2.847 0.043 4.4 0.043 1.352 0 2.674-0.014 3.969-0.043 1.323-0.029 2.401-0.058 3.235-0.087z"></path>
<path d="M147.119 0.609v0.87c-0.863 0.174-1.524 0.478-1.984 0.913-0.432 0.435-0.719 1.116-0.863 2.044-0.144 0.899-0.216 2.174-0.216 3.826v23.13c-0.432-0.058-0.906-0.087-1.424-0.087-0.489 0-1.021 0.029-1.596 0.087l-19.11-21.043v12.522c0 1.942 0.072 3.435 0.216 4.478 0.173 1.014 0.561 1.754 1.165 2.217 0.633 0.435 1.625 0.754 2.977 0.957v0.87c-0.575-0.058-1.323-0.087-2.243-0.087-0.92-0.029-1.783-0.043-2.588-0.043-0.633 0-1.28 0.014-1.941 0.043-0.662 0-1.208 0.029-1.639 0.087v-0.87c0.892-0.203 1.553-0.507 1.984-0.913 0.431-0.435 0.719-1.116 0.863-2.043s0.216-2.203 0.216-3.826v-18.522c0-1.072-0.072-1.855-0.216-2.348-0.144-0.522-0.446-0.87-0.906-1.043-0.432-0.203-1.078-0.319-1.941-0.348v-0.87c0.431 0.029 0.978 0.058 1.639 0.087s1.308 0.043 1.941 0.043c0.719 0 1.424-0.014 2.114-0.043s1.309-0.058 1.855-0.087l17.643 18.783v-10.261c0-1.942-0.086-3.42-0.259-4.435-0.144-1.043-0.518-1.797-1.122-2.261s-1.596-0.783-2.976-0.957v-0.87c0.575 0.029 1.323 0.058 2.243 0.087s1.783 0.043 2.588 0.043c0.661 0 1.308-0.014 1.941-0.043 0.661-0.029 1.208-0.058 1.639-0.087z"></path>
<path d="M165.737 0c3.25 0 6.097 0.623 8.542 1.87s4.342 3.043 5.694 5.391c1.352 2.319 2.028 5.145 2.028 8.478 0 3.246-0.69 6.087-2.071 8.522s-3.307 4.333-5.78 5.696c-2.444 1.362-5.263 2.043-8.455 2.043-3.25 0-6.097-0.623-8.541-1.87s-4.342-3.043-5.694-5.391c-1.352-2.348-2.028-5.174-2.028-8.478 0-3.246 0.69-6.087 2.070-8.522 1.409-2.435 3.336-4.333 5.781-5.696s5.263-2.043 8.455-2.043zM165.564 0.783c-1.438 0-2.689 0.652-3.753 1.957s-1.884 3.101-2.459 5.391-0.863 4.942-0.863 7.957c0 3.072 0.331 5.754 0.992 8.043 0.661 2.261 1.553 4.014 2.674 5.261 1.122 1.217 2.358 1.826 3.71 1.826 1.438 0 2.689-0.652 3.753-1.957s1.884-3.101 2.459-5.391c0.575-2.319 0.863-4.971 0.863-7.957 0-3.101-0.331-5.783-0.992-8.043s-1.553-4-2.674-5.217c-1.122-1.246-2.358-1.87-3.71-1.87z"></path>
</symbol>
</defs>
</svg>
